<svg xmlns="http://www.w3.org/2000/svg" viewBox="0 0 96 96" role="img" aria-label="追光周刊 icon">
  <defs>
    <linearGradient id="ring" x1="0" y1="0" x2="1" y2="1">
      <stop offset="0" stop-color="#34d399"/>
      <stop offset="1" stop-color="#166534"/>
    </linearGradient>
    <radialGradient id="core" cx="0.5" cy="0.35" r="0.75">
      <stop offset="0" stop-color="#fefce8"/>
      <stop offset="0.45" stop-color="#fde68a"/>
      <stop offset="1" stop-color="#f59e0b"/>
    </radialGradient>
    <linearGradient id="beam" x1="0.5" y1="0" x2="0.5" y2="1">
      <stop offset="0" stop-color="#fef9c3" stop-opacity="0.95"/>
      <stop offset="1" stop-color="#fde68a" stop-opacity="0"/>
    </linearGradient>
    <linearGradient id="hillFront" x1="0.2" y1="0" x2="0.8" y2="1">
      <stop offset="0" stop-color="#22c55e"/>
      <stop offset="1" stop-color="#166534"/>
    </linearGradient>
  </defs>
  <circle cx="48" cy="48" r="46" fill="url(#ring)"/>
  <circle cx="48" cy="48" r="41" fill="#ecfdf5" opacity="0.94"/>
  <circle cx="48" cy="31" r="15" fill="url(#core)"/>
  <path d="M18 54c7-10 17-16 30-16s23 6 30 16v5H18z" fill="#bbf7d0"/>
  <path d="M10 63c8-12 20-19 38-19s30 7 38 19v21H10z" fill="#15803d"/>
  <path d="M18 68c7-8 17-13 30-13s23 5 30 13v16H18z" fill="url(#hillFront)"/>
  <path d="M43.5 40h9L64 84H32z" fill="url(#beam)"/>
  <path d="M31 83c5-11 10-18 17-23 7 5 12 12 17 23H31z" fill="#fef3c7" opacity="0.95"/>
  <circle cx="36.5" cy="27.5" r="2.5" fill="#fff7d6" opacity="0.72"/>
  <circle cx="41" cy="58" r="3.2" fill="#ffffff" opacity="0.28"/>
</svg>
